<svg width="56" height="46" viewBox="0 0 56 46" fill="none" xmlns="http://www.w3.org/2000/svg">
    <path d="M0.410156 23.1362C2.79151 10.1654 14.1587 0.335938 27.8186 0.335938C41.4784 0.335938 52.8431 10.1654 55.227 23.1362C52.8456 36.107 41.4784 45.9364 27.8186 45.9364C14.1587 45.9364 2.79405 36.107 0.410156 23.1362ZM27.8186 35.803C31.178 35.803 34.3998 34.4684 36.7753 32.0929C39.1508 29.7175 40.4854 26.4956 40.4854 23.1362C40.4854 19.7767 39.1508 16.5549 36.7753 14.1794C34.3998 11.8039 31.178 10.4694 27.8186 10.4694C24.4591 10.4694 21.2373 11.8039 18.8618 14.1794C16.4863 16.5549 15.1518 19.7767 15.1518 23.1362C15.1518 26.4956 16.4863 29.7175 18.8618 32.0929C21.2373 34.4684 24.4591 35.803 27.8186 35.803ZM27.8186 30.7362C25.8029 30.7362 23.8698 29.9355 22.4445 28.5102C21.0192 27.0849 20.2185 25.1518 20.2185 23.1362C20.2185 21.1205 21.0192 19.1874 22.4445 17.7621C23.8698 16.3368 25.8029 15.5361 27.8186 15.5361C29.8342 15.5361 31.7673 16.3368 33.1926 17.7621C34.6179 19.1874 35.4186 21.1205 35.4186 23.1362C35.4186 25.1518 34.6179 27.0849 33.1926 28.5102C31.7673 29.9355 29.8342 30.7362 27.8186 30.7362Z" fill="#41B883"/>
</svg>
