<svg width="57" height="32" viewBox="0 0 57 32" fill="none" xmlns="http://www.w3.org/2000/svg">
    <path d="M40.9365 21.2044H29.9392C28.744 24.585 26.3921 27.4342 23.2994 29.2485C20.2066 31.0628 16.572 31.7253 13.038 31.1189C9.50397 30.5126 6.29808 28.6764 3.98694 25.935C1.67579 23.1935 0.408203 19.7233 0.408203 16.1377C0.408203 12.552 1.67579 9.08182 3.98694 6.34037C6.29808 3.59893 9.50397 1.76278 13.038 1.15644C16.572 0.550095 20.2066 1.21261 23.2994 3.02689C26.3921 4.84116 28.744 7.69038 29.9392 11.071H56.1366V21.2044H51.0699V31.3378H40.9365V21.2044ZM15.6029 21.2044C16.9467 21.2044 18.2354 20.6706 19.1856 19.7204C20.1358 18.7702 20.6696 17.4815 20.6696 16.1377C20.6696 14.7939 20.1358 13.5052 19.1856 12.555C18.2354 11.6048 16.9467 11.071 15.6029 11.071C14.2591 11.071 12.9704 11.6048 12.0202 12.555C11.07 13.5052 10.5362 14.7939 10.5362 16.1377C10.5362 17.4815 11.07 18.7702 12.0202 19.7204C12.9704 20.6706 14.2591 21.2044 15.6029 21.2044Z" fill="#A6AAB7"/>
</svg>
