<svg width="21" height="21" viewBox="0 0 21 21" fill="#A6AAB7" xmlns="http://www.w3.org/2000/svg">
    <path d="M19.9253 17.294L15.9913 13.4C15.9032 13.3131 15.7985 13.2442 15.6835 13.1974C15.5684 13.1505 15.4451 13.1266 15.3207 13.127H14.6773C15.8056 11.7001 16.417 9.93921 16.4135 8.127C16.4139 7.0598 16.2019 6.00299 15.7897 5.01693C15.3775 4.03087 14.773 3.13489 14.011 2.38017C13.2489 1.62546 12.3441 1.0268 11.3483 0.618403C10.3525 0.210005 9.28513 -0.00013119 8.20726 2.46268e-07C7.12939 -0.000262513 6.06203 0.209743 5.06616 0.618019C4.07029 1.0263 3.16543 1.62484 2.40326 2.37946C1.64109 3.13409 1.03656 4.02999 0.6242 5.016C0.211841 6.00201 -0.000265138 7.0588 2.4873e-07 8.126C-0.00013245 9.19311 0.212071 10.2498 0.62449 11.2357C1.03691 12.2216 1.64146 13.1174 2.40362 13.8719C3.16577 14.6264 4.07059 15.2249 5.0664 15.6331C6.0622 16.0413 7.12948 16.2513 8.20726 16.251C10.0376 16.2545 11.816 15.6491 13.2573 14.532V15.169C13.2569 15.2922 13.281 15.4142 13.3283 15.5282C13.3757 15.6421 13.4452 15.7457 13.533 15.833L17.4669 19.728C17.5546 19.8152 17.6588 19.8844 17.7735 19.9316C17.8883 19.9788 18.0113 20.0031 18.1356 20.0031C18.2598 20.0031 18.3828 19.9788 18.4976 19.9316C18.6123 19.8844 18.7165 19.8152 18.8042 19.728L19.9212 18.622C20.0989 18.446 20.1991 18.2076 20.1998 17.9588C20.2006 17.71 20.1019 17.471 19.9253 17.294ZM8.20726 13.126C6.86792 13.126 5.58343 12.5992 4.63637 11.6615C3.68931 10.7239 3.15726 9.45208 3.15726 8.126C3.15726 6.79992 3.68931 5.52815 4.63637 4.59047C5.58343 3.65279 6.86792 3.126 8.20726 3.126C8.87044 3.126 9.52712 3.25533 10.1398 3.5066C10.7525 3.75788 11.3092 4.12617 11.7781 4.59047C12.2471 5.05476 12.6191 5.60596 12.8729 6.21258C13.1266 6.81921 13.2573 7.46939 13.2573 8.126C13.2573 9.45208 12.7252 10.7239 11.7781 11.6615C10.8311 12.5992 9.5466 13.126 8.20726 13.126Z"/>
</svg>
