<svg width="34" height="37" viewBox="0 0 34 37" fill="#A6AAB7" xmlns="http://www.w3.org/2000/svg">
    <path d="M8.88356 31.3347C9.37802 31.3347 9.86137 31.4813 10.2725 31.756C10.6836 32.0307 11.004 32.4212 11.1933 32.878C11.3825 33.3348 11.432 33.8375 11.3355 34.3224C11.2391 34.8074 11.001 35.2528 10.6513 35.6025C10.3017 35.9521 9.85624 36.1902 9.37129 36.2867C8.88634 36.3831 8.38367 36.3336 7.92685 36.1444C7.47004 35.9552 7.07959 35.6347 6.80489 35.2236C6.53018 34.8125 6.38356 34.3291 6.38356 33.8347C6.38356 33.1716 6.64695 32.5358 7.1158 32.0669C7.58464 31.5981 8.22052 31.3347 8.88356 31.3347ZM30.5506 31.3347C31.045 31.3347 31.5284 31.4813 31.9395 31.756C32.3506 32.0307 32.671 32.4212 32.8603 32.878C33.0495 33.3348 33.099 33.8375 33.0025 34.3224C32.9061 34.8074 32.668 35.2528 32.3183 35.6025C31.9687 35.9521 31.5232 36.1902 31.0383 36.2867C30.5533 36.3831 30.0507 36.3336 29.5939 36.1444C29.137 35.9552 28.7466 35.6347 28.4719 35.2236C28.1972 34.8125 28.0506 34.3291 28.0506 33.8347C28.0506 33.1718 28.3138 32.5361 28.7824 32.0673C29.2511 31.5985 29.8867 31.335 30.5496 31.3347H30.5506ZM3.33656 0.929688L9.71456 7.30969V26.3347H33.0496V29.6727H8.04956C7.60745 29.6727 7.18344 29.4971 6.87082 29.1844C6.55819 28.8718 6.38256 28.4478 6.38256 28.0057V8.68969L0.976562 3.28769L3.33456 0.929688H3.33656Z"/>
    <path d="M20.5488 17.6094H11.8828C11.3305 17.6094 10.8828 18.0571 10.8828 18.6094V24.0534C10.8828 24.6057 11.3305 25.0534 11.8828 25.0534H20.5488C21.1011 25.0534 21.5488 24.6057 21.5488 24.0534V18.6094C21.5488 18.0571 21.1011 17.6094 20.5488 17.6094Z"/>
    <path d="M20.5488 8.6875H11.8828C11.3305 8.6875 10.8828 9.13522 10.8828 9.6875V15.1315C10.8828 15.6838 11.3305 16.1315 11.8828 16.1315H20.5488C21.1011 16.1315 21.5488 15.6838 21.5488 15.1315V9.6875C21.5488 9.13522 21.1011 8.6875 20.5488 8.6875Z"/>
    <path d="M32.2126 8.6875H23.6816C23.1294 8.6875 22.6816 9.13522 22.6816 9.6875V15.1315C22.6816 15.6838 23.1294 16.1315 23.6816 16.1315H32.2126C32.7649 16.1315 33.2126 15.6838 33.2126 15.1315V9.6875C33.2126 9.13522 32.7649 8.6875 32.2126 8.6875Z"/>
    <path d="M32.2126 17.6094H23.6816C23.1294 17.6094 22.6816 18.0571 22.6816 18.6094V24.0534C22.6816 24.6057 23.1294 25.0534 23.6816 25.0534H32.2126C32.7649 25.0534 33.2126 24.6057 33.2126 24.0534V18.6094C33.2126 18.0571 32.7649 17.6094 32.2126 17.6094Z"/>
</svg>
