<svg width="46" height="51" viewBox="0 0 46 51" fill="#A6AAB7" xmlns="http://www.w3.org/2000/svg">
    <path d="M22.8601 25.5943C25.3635 25.5943 27.8108 24.8516 29.8923 23.46C31.9739 22.0684 33.5963 20.0905 34.5543 17.7764C35.5123 15.4623 35.763 12.9159 35.2746 10.4593C34.7862 8.00265 33.5807 5.74608 31.8104 3.97493C30.0402 2.20379 27.7848 0.99763 25.3295 0.508973C22.8741 0.0203158 20.329 0.271112 18.0161 1.22965C15.7032 2.18818 13.7264 3.8114 12.3355 5.89405C10.9447 7.97669 10.2023 10.4252 10.2023 12.93C10.2023 16.2888 11.5359 19.51 13.9097 21.885C16.2835 24.2601 19.503 25.5943 22.8601 25.5943ZM31.7205 28.7604H30.075C27.813 29.8051 25.3514 30.3462 22.8601 30.3462C20.3687 30.3462 17.9071 29.8051 15.6451 28.7604H13.9996C10.4749 28.7611 7.0948 30.1623 4.60247 32.6559C2.11013 35.1496 0.709656 38.5315 0.708984 42.058V46.1739C0.708984 47.4335 1.20908 48.6414 2.09925 49.5321C2.98942 50.4227 4.19675 50.923 5.45564 50.923H40.2645C41.5234 50.923 42.7307 50.4227 43.6209 49.5321C44.511 48.6414 45.0111 47.4335 45.0111 46.1739V42.058C45.0105 38.5315 43.61 35.1496 41.1177 32.6559C38.6253 30.1623 35.2452 28.7611 31.7205 28.7604Z"/>
</svg>
